{
  "accessors": [
    {
      "bufferView": 2,
      "componentType": 5126,
      "count": 6816,
      "max": [
        0.46814388036727905,
        0.99280858039855957,
        -0.04922042042016983
      ],
      "min": [
        -0.46814388036727905,
        -0.99290919303894043,
        -0.77663528919219971
      ],
      "type": "VEC3"
    },
    {
      "bufferView": 2,
      "byteOffset": 81792,
      "componentType": 5126,
      "count": 6816,
      "max": [
        0.99990618228912354,
        0.99974793195724487,
        0.99998515844345093
      ],
      "min": [
        -0.99990618228912354,
        -0.9995759129524231,
        -0.99980700016021729
      ],
      "type": "VEC3"
    },
    {
      "bufferView": 3,
      "componentType": 5126,
      "count": 6816,
      "max": [
        0.53333336114883423,
        0.54901963472366333,
        0.65882354974746704,
        1
      ],
      "min": [
        0.53333336114883423,
        0.54901963472366333,
        0.65882354974746704,
        1
      ],
      "type": "VEC4"
    },
    {
      "bufferView": 1,
      "componentType": 5126,
      "count": 6816,
      "max": [
        0.97587001323699951,
        0.99975001811981201
      ],
      "min": [
        0.00023999999393709004,
        0.00023999999393709004
      ],
      "type": "VEC2"
    },
    {
      "bufferView": 0,
      "componentType": 5125,
      "count": 19320,
      "max": [
        6815
      ],
      "min": [
        0
      ],
      "type": "SCALAR"
    }
  ],
  "asset": {
    "extras": {
      "author": "3dwindow (https://sketchfab.com/3dwindow)",
      "license": "CC-BY-4.0 (http://creativecommons.org/licenses/by/4.0/)",
      "source": "https://sketchfab.com/3d-models/on-patrol-001-a7e7b22cc3744dd49cd3999e65a4c761",
      "title": "On Patrol 001"
    },
    "generator": "Sketchfab-8.0.0",
    "version": "2.0"
  },
  "bufferViews": [
    {
      "buffer": 0,
      "byteLength": 77280,
      "byteOffset": 0,
      "name": "floatBufferViews",
      "target": 34963
    },
    {
      "buffer": 0,
      "byteLength": 54528,
      "byteOffset": 77280,
      "byteStride": 8,
      "name": "floatBufferViews",
      "target": 34962
    },
    {
      "buffer": 0,
      "byteLength": 163584,
      "byteOffset": 131808,
      "byteStride": 12,
      "name": "floatBufferViews",
      "target": 34962
    },
    {
      "buffer": 0,
      "byteLength": 109056,
      "byteOffset": 295392,
      "byteStride": 16,
      "name": "floatBufferViews",
      "target": 34962
    }
  ],
  "buffers": [
    {
      "byteLength": 404448,
      "uri": "scene.bin"
    }
  ],
  "images": [
    {
      "uri": "textures/defaultMat_baseColor.png"
    }
  ],
  "materials": [
    {
      "doubleSided": true,
      "emissiveFactor": [
        0,
        0,
        0
      ],
      "name": "defaultMat",
      "pbrMetallicRoughness": {
        "baseColorFactor": [
          1,
          1,
          1,
          1
        ],
        "baseColorTexture": {
          "index": 0,
          "texCoord": 0
        },
        "metallicFactor": 1,
        "roughnessFactor": 1
      }
    }
  ],
  "meshes": [
    {
      "primitives": [
        {
          "attributes": {
            "COLOR_0": 2,
            "NORMAL": 1,
            "POSITION": 0,
            "TEXCOORD_0": 3
          },
          "indices": 4,
          "material": 0,
          "mode": 4
        }
      ]
    }
  ],
  "nodes": [
    {
      "children": [
        1
      ],
      "name": "RootNode (gltf orientation matrix)",
      "rotation": [
        -0.70710678118654746,
        -0,
        -0,
        0.70710678118654757
      ]
    },
    {
      "children": [
        2
      ],
      "name": "RootNode (model correction matrix)"
    },
    {
      "children": [
        3
      ],
      "name": "on_patrol_001.OBJ.cleaner.materialmerger.gles"
    },
    {
      "mesh": 0,
      "name": ""
    }
  ],
  "samplers": [
    {
      "magFilter": 9729,
      "minFilter": 9987,
      "wrapS": 10497,
      "wrapT": 10497
    }
  ],
  "scene": 0,
  "scenes": [
    {
      "name": "OSG_Scene",
      "nodes": [
        0
      ]
    }
  ],
  "textures": [
    {
      "sampler": 0,
      "source": 0
    }
  ]
}

